<?xml version="1.0" encoding="utf-8"?>
<!-- Generator: Adobe Illustrator 24.1.0, SVG Export Plug-In . SVG Version: 6.00 Build 0)  -->
<svg version="1.1" id="Layer_1" xmlns="http://www.w3.org/2000/svg" xmlns:xlink="http://www.w3.org/1999/xlink" x="0px" y="0px"
	 viewBox="0 0 205 22" style="enable-background:new 0 0 205 22;" xml:space="preserve">
<style type="text/css">
	.st0{fill:#FFE600;}
	.st1{fill:none;}
	.st2{font-family:'Montserrat-Regular';}
	.st3{font-size:7.5859px;}
</style>
<g>
	<path class="st0" d="M113.1,7.3v6h-1.2v-2.6h-2.6v2.6h-1.2v-6h1.2v2.5h2.6V7.3H113.1z M118.5,9c0.3,0,0.6,0.1,0.9,0.2
		c0.3,0.1,0.5,0.2,0.7,0.4c0.2,0.2,0.3,0.4,0.4,0.7c0.1,0.3,0.2,0.6,0.2,0.9s-0.1,0.6-0.2,0.9c-0.1,0.3-0.2,0.5-0.4,0.7
		c-0.2,0.2-0.4,0.3-0.7,0.4c-0.3,0.1-0.6,0.2-0.9,0.2c-0.3,0-0.6-0.1-0.9-0.2c-0.3-0.1-0.5-0.2-0.7-0.4c-0.2-0.2-0.3-0.4-0.4-0.7
		c-0.1-0.3-0.2-0.6-0.2-0.9s0.1-0.6,0.2-0.9c0.1-0.3,0.3-0.5,0.4-0.7c0.2-0.2,0.4-0.3,0.7-0.4C117.8,9,118.1,9,118.5,9z M118.5,12.5
		c0.3,0,0.6-0.1,0.7-0.3c0.2-0.2,0.2-0.6,0.2-1c0-0.4-0.1-0.8-0.2-1c-0.2-0.2-0.4-0.3-0.7-0.3c-0.3,0-0.6,0.1-0.7,0.3
		c-0.2,0.2-0.2,0.6-0.2,1c0,0.4,0.1,0.8,0.2,1C117.9,12.4,118.1,12.5,118.5,12.5z M127.5,9v4.3h-0.7c-0.1,0-0.2-0.1-0.3-0.2
		l-0.1-0.3c-0.1,0.1-0.2,0.2-0.3,0.2c-0.1,0.1-0.2,0.1-0.3,0.2c-0.1,0-0.2,0.1-0.3,0.1c-0.1,0-0.2,0-0.4,0c-0.2,0-0.4,0-0.6-0.1
		c-0.2-0.1-0.3-0.2-0.5-0.3c-0.1-0.1-0.2-0.3-0.3-0.5c-0.1-0.2-0.1-0.4-0.1-0.7V9h1.1v2.7c0,0.2,0.1,0.4,0.2,0.6
		c0.1,0.1,0.3,0.2,0.5,0.2c0.2,0,0.3,0,0.5-0.1c0.1-0.1,0.3-0.2,0.4-0.3V9H127.5z M133.6,9.9c0,0-0.1,0.1-0.1,0.1c0,0-0.1,0-0.1,0
		s-0.1,0-0.2,0c-0.1,0-0.1-0.1-0.2-0.1c-0.1,0-0.2-0.1-0.2-0.1c-0.1,0-0.2,0-0.3,0c-0.2,0-0.3,0-0.4,0.1c-0.1,0.1-0.2,0.2-0.2,0.3
		c0,0.1,0,0.2,0.1,0.2c0.1,0.1,0.1,0.1,0.2,0.2c0.1,0,0.2,0.1,0.3,0.1c0.1,0,0.2,0.1,0.4,0.1c0.1,0,0.3,0.1,0.4,0.2
		c0.1,0.1,0.2,0.1,0.3,0.2c0.1,0.1,0.2,0.2,0.2,0.3c0.1,0.1,0.1,0.3,0.1,0.4c0,0.2,0,0.4-0.1,0.6c-0.1,0.2-0.2,0.3-0.3,0.5
		c-0.1,0.1-0.3,0.2-0.5,0.3s-0.5,0.1-0.8,0.1c-0.1,0-0.3,0-0.4,0c-0.1,0-0.3-0.1-0.4-0.1c-0.1,0-0.3-0.1-0.4-0.2s-0.2-0.1-0.3-0.2
		l0.3-0.4c0,0,0.1-0.1,0.1-0.1c0,0,0.1,0,0.2,0c0.1,0,0.1,0,0.2,0.1c0.1,0,0.1,0.1,0.2,0.1c0.1,0,0.2,0.1,0.3,0.1c0.1,0,0.2,0,0.4,0
		c0.1,0,0.2,0,0.3,0c0.1,0,0.1-0.1,0.2-0.1c0,0,0.1-0.1,0.1-0.1c0-0.1,0-0.1,0-0.2c0-0.1,0-0.2-0.1-0.2c-0.1-0.1-0.1-0.1-0.2-0.2
		c-0.1,0-0.2-0.1-0.3-0.1c-0.1,0-0.3-0.1-0.4-0.1c-0.1,0-0.3-0.1-0.4-0.2c-0.1-0.1-0.2-0.1-0.3-0.2c-0.1-0.1-0.2-0.2-0.2-0.3
		c-0.1-0.1-0.1-0.3-0.1-0.5c0-0.2,0-0.3,0.1-0.5c0.1-0.2,0.2-0.3,0.3-0.4c0.1-0.1,0.3-0.2,0.5-0.3c0.2-0.1,0.4-0.1,0.7-0.1
		c0.3,0,0.6,0,0.8,0.1c0.2,0.1,0.5,0.2,0.6,0.4L133.6,9.9z M139.8,10.7c0-0.1,0-0.2,0-0.3c0-0.1-0.1-0.2-0.1-0.3
		c-0.1-0.1-0.2-0.1-0.3-0.2c-0.1,0-0.2-0.1-0.4-0.1c-0.3,0-0.5,0.1-0.6,0.2c-0.2,0.2-0.3,0.4-0.3,0.7H139.8z M138,11.3
		c0,0.4,0.1,0.7,0.3,0.9c0.2,0.2,0.4,0.3,0.8,0.3c0.2,0,0.3,0,0.4-0.1c0.1,0,0.2-0.1,0.3-0.1c0.1,0,0.2-0.1,0.2-0.1
		c0.1,0,0.1-0.1,0.2-0.1c0.1,0,0.2,0,0.2,0.1l0.3,0.4c-0.1,0.1-0.3,0.3-0.4,0.4c-0.1,0.1-0.3,0.2-0.5,0.2c-0.2,0.1-0.3,0.1-0.5,0.1
		c-0.2,0-0.3,0-0.5,0c-0.3,0-0.6,0-0.8-0.1c-0.3-0.1-0.5-0.2-0.7-0.4c-0.2-0.2-0.3-0.4-0.5-0.7c-0.1-0.3-0.2-0.6-0.2-1
		c0-0.3,0-0.6,0.1-0.8c0.1-0.3,0.2-0.5,0.4-0.7c0.2-0.2,0.4-0.3,0.7-0.5C138.3,9,138.6,9,139,9c0.3,0,0.5,0,0.8,0.1
		c0.2,0.1,0.4,0.2,0.6,0.4c0.2,0.2,0.3,0.4,0.4,0.6c0.1,0.2,0.1,0.5,0.1,0.8c0,0.1,0,0.2,0,0.2c0,0.1,0,0.1,0,0.1c0,0,0,0.1-0.1,0.1
		c0,0-0.1,0-0.1,0H138z"/>
	<rect x="64.2" y="7.6" class="st1" width="44.7" height="6.5"/>
	<text transform="matrix(1 0 0 1 64.1711 13.2303)" class="st2 st3">by Nick Niki</text>
</g>
</svg>
