<?xml version="1.0" standalone="no"?>
<!DOCTYPE svg PUBLIC "-//W3C//DTD SVG 1.1//EN" "http://www.w3.org/Graphics/SVG/1.1/DTD/svg11.dtd" >
<svg xmlns="http://www.w3.org/2000/svg" xmlns:xlink="http://www.w3.org/1999/xlink" version="1.1">
<metadata></metadata>
<defs>
<font id="vanilla_twilightregular" horiz-adv-x="1005" >
<font-face units-per-em="2048" ascent="1638" descent="-410" />
<missing-glyph horiz-adv-x="514" />
<glyph horiz-adv-x="0" />
<glyph horiz-adv-x="682" />
<glyph unicode=" "  horiz-adv-x="514" />
<glyph unicode="&#x09;" horiz-adv-x="514" />
<glyph unicode="&#xa0;" horiz-adv-x="514" />
<glyph unicode="!" horiz-adv-x="440" />
<glyph unicode="&#x22;" horiz-adv-x="452" />
<glyph unicode="#" horiz-adv-x="1339" />
<glyph unicode="$" horiz-adv-x="872" />
<glyph unicode="%" horiz-adv-x="1339" />
<glyph unicode="&#x26;" horiz-adv-x="1404" d="M29 358q0 144 78.5 248.5t222.5 196.5q-29 95 -29 180q0 88 25.5 163.5t67 124t93.5 76t107 27.5q98 0 151.5 -67.5t53.5 -173.5q0 -117 -62 -208.5t-174 -170.5q46 -88 124 -181.5t149 -156.5q90 98 128 131q105 90 205 90q34 0 55 -24t21 -58q0 -42 -32.5 -71 t-73.5 -31q-27 -5 -59.5 -33.5t-94.5 -93.5q-9 -10 -14 -15q85 -58 165 -92.5t126.5 -42.5t83 -15.5t51 -22.5t14.5 -52q0 -39 -35.5 -67.5t-107.5 -28.5q-70 0 -192 43.5t-247 134.5q-203 -180 -413 -180q-172 0 -279.5 103t-107.5 267zM217 383q0 -91 55 -152t148 -61 t154.5 29.5t119.5 79.5q-185 164 -295 366q-62 -43 -98 -76t-60 -80.5t-24 -105.5zM487 1001q0 -35 11 -81q53 42 82.5 84t29.5 98q0 41 -10.5 65.5t-28.5 24.5q-33 0 -58.5 -59t-25.5 -132z" />
<glyph unicode="'" horiz-adv-x="194" />
<glyph unicode="(" horiz-adv-x="561" />
<glyph unicode=")" horiz-adv-x="552" />
<glyph unicode="*" horiz-adv-x="552" />
<glyph unicode="+" horiz-adv-x="677" />
<glyph unicode="," horiz-adv-x="139" d="M-53 51q0 45 28 80t76 35q51 0 77 -34.5t26 -88.5q0 -81 -48 -152t-118 -71q-16 0 -27.5 11t-11.5 24q0 15 9.5 26t21.5 18t27.5 23t25.5 39q-42 0 -64 26t-22 64z" />
<glyph unicode="-" horiz-adv-x="595" />
<glyph unicode="." horiz-adv-x="159" d="M-31 80q0 62 32.5 98.5t78.5 36.5q32 0 55 -20.5t23 -55.5q0 -69 -31.5 -104t-79.5 -35q-30 0 -54 22t-24 58z" />
<glyph unicode="/" horiz-adv-x="571" d="M-31 -123q0 19 237.5 770t264.5 797q1 3 2.5 7t8.5 15t16 19t26 15t37 7q30 0 50 -19t20 -46q0 -37 -64 -248.5t-236 -754.5q-113 -356 -181 -572q-9 -29 -39 -46.5t-64 -17.5t-56 22.5t-22 51.5z" />
<glyph unicode="0" horiz-adv-x="894" d="M115 627q0 347 111.5 547t281.5 200q73 0 130.5 -45.5t92 -115.5t56.5 -162.5t30 -177t8 -168.5q0 -95 -12 -188t-39.5 -184.5t-68 -161t-104 -112.5t-140.5 -43q-78 0 -140 38t-99.5 98.5t-62.5 143t-34.5 163.5t-9.5 168zM303 662q0 -147 29 -262t71.5 -172.5 t88.5 -57.5q44 0 78 59t52 145t26.5 163t8.5 133q0 127 -18.5 231.5t-47.5 166t-60.5 95t-59.5 33.5q-37 0 -76.5 -81t-65.5 -207t-26 -246z" />
<glyph unicode="1" horiz-adv-x="534" d="M31 1040q0 20 8 37t25.5 31.5t29 22.5t35.5 20.5t29 15.5q41 27 72 58.5t47 55t32.5 44t38 31t53.5 10.5t52 -23.5t20 -72.5q0 -26 -35 -435.5t-35 -629.5v-51q0 -77 -30.5 -114.5t-75.5 -37.5q-51 0 -67.5 30t-16.5 91q0 36 3.5 150t17 338.5t32.5 424.5 q-2 -1 -16.5 -10.5t-19 -12t-18.5 -11t-21 -11.5t-19.5 -9t-21 -8.5t-19.5 -4.5t-20 -2q-39 0 -59.5 21.5t-20.5 51.5z" />
<glyph unicode="2" horiz-adv-x="940" d="M51 70q0 127 36 229t94 167.5t128 118t140 94t128 82t94 94.5t36 120q0 101 -66.5 172.5t-165.5 71.5q-62 0 -104 -28.5t-63.5 -69.5t-39 -81.5t-42.5 -69t-62 -28.5q-25 0 -43.5 18t-18.5 41q0 36 16.5 83.5t51.5 98t82.5 92.5t116 69.5t145.5 27.5q92 0 166 -29.5 t120 -80.5t70.5 -117t24.5 -141q0 -96 -32 -171.5t-85 -126t-117 -92.5t-131 -82.5t-124.5 -84t-101 -108.5t-56.5 -146q148 20 248 20q67 0 169.5 -14t125.5 -21q25 -7 39 -27.5t14 -46.5q0 -40 -32 -72t-73 -32q-190 31 -278 31q-83 0 -203.5 -15.5t-124.5 -15.5 q-31 0 -56.5 19.5t-25.5 50.5z" />
<glyph unicode="3" horiz-adv-x="929" d="M61 309q0 105 84 105q24 0 44.5 -24t38.5 -58t39.5 -68t58 -58t84.5 -24q66 0 126.5 47t95 114.5t34.5 131.5q0 66 -43 104.5t-129 38.5q-40 0 -77.5 -7t-76.5 -7q-34 0 -55 24t-21 58q0 42 34 71t75 29q104 0 179 79.5t75 185.5q0 159 -152 159q-62 0 -107 -20.5 t-67.5 -51t-41 -66.5t-30.5 -66.5t-35 -51t-55 -20.5q-26 0 -43.5 19t-17.5 46q0 43 17.5 93t54.5 100.5t87.5 91.5t123.5 66.5t155 25.5q144 0 221.5 -78t77.5 -211q0 -86 -32 -170t-91 -149q76 -35 119 -102.5t43 -163.5q0 -118 -62.5 -233.5t-173.5 -192t-237 -76.5 q-130 0 -225 86t-95 223z" />
<glyph unicode="4" horiz-adv-x="942" d="M29 608q0 38 155.5 225.5t322.5 359t195 171.5q38 0 59 -26.5t21 -65.5q-41 -306 -55 -527q17 0 49 1.5t49 1.5q27 0 41.5 -1t33.5 -5t28.5 -12t16.5 -23.5t7 -38.5q0 -19 -5 -34t-16 -25.5t-22 -18.5t-29.5 -13t-31.5 -8.5t-35 -4.5t-33.5 -1.5t-33.5 -1t-29 -0.5 q-2 -53 -2 -160q0 -76 3 -150.5t6 -111.5l3 -37q0 -42 -35 -73t-71 -31q-31 0 -55 21t-27 51q-13 130 -13 297q0 129 4 192q-118 -1 -223.5 -8t-151.5 -14l-46 -7q-37 0 -58.5 20t-21.5 58zM350 735q24 2 191 8q10 131 20 230q-90 -106 -211 -238z" />
<glyph unicode="5" horiz-adv-x="878" d="M41 274q0 42 31 73.5t73 31.5q37 0 57.5 -20t30.5 -48.5t23 -57.5t47 -49t90 -20q63 0 118 51t84.5 123t29.5 142q0 37 -8.5 70t-33.5 69t-65.5 61.5t-111.5 42.5t-164 17q-127 0 -127 88q0 10 31.5 101t63.5 177l32 86q17 46 28 71t30 48t35.5 32t52 16.5t71.5 8.5 t102 1q138 0 209 -3q35 -1 56.5 -23.5t21.5 -55.5q0 -42 -34 -72.5t-73 -30.5h-313q-27 -71 -96 -266q102 -7 187.5 -35t151.5 -77t103 -125.5t37 -172.5q0 -133 -62 -256.5t-164 -198.5t-212 -75q-71 0 -135.5 29.5t-106 72.5t-66 90t-24.5 84z" />
<glyph unicode="6" horiz-adv-x="968" d="M82 467q0 120 31.5 233t84 201.5t120 166.5t140 133.5t143 95.5t130 59.5t100.5 19.5q45 0 68 -19.5t23 -51.5q0 -42 -34.5 -66t-122.5 -59t-153 -74q-176 -120 -264 -299q44 10 105 10q126 0 226.5 -44t162 -133.5t61.5 -211.5q0 -82 -32.5 -160t-89 -137t-139.5 -95 t-177 -36q-122 0 -211 66t-130.5 170t-41.5 231zM272 500q0 -63 12.5 -118t38 -101t70 -72.5t103.5 -26.5q85 0 152 60t67 166q0 105 -80.5 167t-202.5 62q-35 0 -71 -9.5t-39 -9.5q-12 0 -35 9q-15 -65 -15 -127z" />
<glyph unicode="7" horiz-adv-x="872" d="M-27 983q0 48 37 72.5t106.5 36t150.5 22.5t189 45.5t201 91.5q34 24 66 50.5t46 38.5t32.5 20t40.5 8q29 0 55.5 -20.5t26.5 -53.5q0 -50 -43 -112q-146 -248 -240 -541q-30 -101 -52 -196t-31.5 -155.5t-18.5 -115t-15 -84t-18.5 -52t-33 -30.5t-54.5 -8 q-31 0 -52.5 21.5t-21.5 58.5q0 116 69.5 405.5t188.5 544.5q-108 -45 -243.5 -75.5t-204 -38t-88.5 -7.5q-39 0 -66 20.5t-27 53.5z" />
<glyph unicode="8" horiz-adv-x="999" d="M72 401q0 217 250 359q-164 114 -164 280q0 139 109.5 242.5t269.5 103.5q144 0 250 -94.5t106 -204.5q0 -185 -176 -311q103 -59 157 -134.5t54 -180.5q0 -121 -63.5 -228t-167.5 -170t-218 -63q-167 0 -287 121.5t-120 279.5zM258 428q0 -90 76 -169t166 -79 q98 0 167.5 78t69.5 174q0 45 -16.5 80t-52.5 63t-68 45.5t-88 43.5q-129 -60 -191.5 -112t-62.5 -124zM346 1065q0 -37 14.5 -67t44 -54.5t57.5 -41t70 -36.5q173 82 173 178q0 65 -66.5 113.5t-134.5 48.5t-113 -37.5t-45 -103.5z" />
<glyph unicode="9" horiz-adv-x="1038" d="M74 692q0 86 31 183.5t87 187t127.5 162.5t160.5 117t177 44q60 0 119 -28.5t98.5 -69t64 -84t24.5 -74.5q0 -35 -25 -66.5t-66 -31.5q-27 0 -50.5 17.5t-42.5 43t-39 51t-49.5 43t-65.5 17.5q-79 0 -164.5 -78.5t-141 -192.5t-55.5 -214q0 -129 98 -129q76 0 152.5 39.5 t135.5 96t110.5 112.5t96.5 95.5t75 39.5q33 0 56.5 -20t23.5 -56q-104 -264 -129 -340q-60 -185 -74 -379q-1 -24 -2 -38t-7.5 -38.5t-17 -38.5t-32.5 -25t-52 -11q-35 0 -56 23.5t-21 66.5q0 192 69 424q-185 -133 -342 -133q-136 0 -205 82t-69 202z" />
<glyph unicode=":" horiz-adv-x="299" />
<glyph unicode=";" horiz-adv-x="258" />
<glyph unicode="&#x3c;" horiz-adv-x="608" />
<glyph unicode="=" horiz-adv-x="688" />
<glyph unicode="&#x3e;" horiz-adv-x="626" />
<glyph unicode="?" horiz-adv-x="763" />
<glyph unicode="@" horiz-adv-x="1593" />
<glyph unicode="A" horiz-adv-x="942" d="M20 76q0 3 34 134t89 322t115 379.5t120 321.5t97 133q43 0 61 -39t77 -252q102 -368 202 -700q5 -17 18 -57.5t21 -67t17.5 -60t14.5 -56t5 -34.5q0 -43 -32 -72.5t-71 -29.5q-49 0 -68 34.5t-62 183.5q-38 136 -68 233l-275 2q-17 -56 -34.5 -116t-27.5 -96t-22 -75 t-19 -59.5t-17 -42t-18 -31t-20.5 -18t-25.5 -11t-31 -2.5q-33 0 -56.5 22.5t-23.5 53.5zM371 631h166q-29 92 -82 284q-37 -133 -84 -284z" />
<glyph unicode="B" horiz-adv-x="944" d="M133 68q19 525 19 886q0 94 -1 169t-3 103l-1 29q0 32 11.5 54.5t26.5 33.5t41 17t44 7t47 1q113 0 198 -25t133 -67.5t71.5 -93t23.5 -107.5q0 -89 -50.5 -176t-129.5 -156q152 -36 230.5 -127.5t78.5 -205.5q0 -77 -37.5 -153.5t-103.5 -138t-165.5 -100t-213.5 -38.5 q-34 0 -66.5 3.5t-69.5 12t-60 27t-23 45.5zM324 166q20 -4 61 -4q122 0 211.5 64t89.5 163q0 52 -33.5 91.5t-88 61.5t-112.5 33t-118 13q-2 -147 -10 -422zM338 793q84 47 151.5 117t67.5 139q0 59 -59.5 101t-159.5 54q0 -11 1 -88t1 -125q0 -132 -2 -198z" />
<glyph unicode="C" horiz-adv-x="931" d="M59 614q0 107 18 212t57.5 204t96 175t139.5 121.5t181 45.5q78 0 142.5 -25t104.5 -64.5t61.5 -86t21.5 -92.5q0 -39 -19.5 -60.5t-44.5 -21.5q-21 0 -34.5 15.5t-19.5 39t-18.5 51t-29 51t-53 39t-87.5 15.5q-68 0 -124.5 -39.5t-93.5 -101.5t-63 -141t-37 -156.5 t-11 -149.5q0 -122 26 -227.5t79 -174.5t124 -69q42 0 80.5 23t67 56t54.5 66.5t53 56.5t52 23q35 0 58.5 -20t23.5 -55q0 -21 -13 -57.5t-45 -83.5t-76.5 -88t-117 -69t-157.5 -28q-104 0 -183 54.5t-124 145.5t-67 196t-22 220z" />
<glyph unicode="D" horiz-adv-x="940" d="M133 68q19 525 19 886q0 94 -2 169t-4 103l-1 29q0 66 48 91.5t131 25.5t160.5 -25t145.5 -77.5t119 -127t80 -180.5t29 -231q0 -143 -43 -274t-122.5 -233.5t-203.5 -164t-274 -61.5q-39 0 -60.5 23.5t-21.5 46.5zM324 184q113 20 193.5 101t116.5 188.5t36 228.5 q0 87 -22 174t-62.5 163t-106 131t-145.5 73q6 -79 6 -252q0 -212 -16 -807z" />
<glyph unicode="E" horiz-adv-x="913" d="M133 68q19 525 19 886q0 94 -2 169t-4 103l-1 29q0 47 30.5 79t72.5 32h219q56 0 142.5 3t144.5 6l59 3q32 0 52 -24.5t20 -57.5q0 -41 -32.5 -69t-76.5 -31q-19 -1 -134.5 -6.5t-178.5 -5.5q-45 0 -127 4q2 -20 2 -197q0 -161 -2 -241q2 0 139 8t139 8q32 0 52 -24.5 t20 -55.5q0 -41 -32.5 -68.5t-75.5 -29.5l-246 -15q-2 -139 -10 -403q70 -4 131 -4q56 0 142.5 3.5t144.5 6.5l59 4q32 0 52.5 -25.5t20.5 -58.5q0 -41 -33.5 -68.5t-76.5 -29.5q-218 -12 -311 -12h-72q-52 0 -88.5 2.5t-76.5 10t-60.5 25t-20.5 44.5z" />
<glyph unicode="F" horiz-adv-x="815" d="M133 68q19 525 19 886q0 94 -2 169t-4 103l-1 29q0 48 31 79.5t72 31.5h225q56 0 142.5 3t144.5 6l59 3q32 0 52 -24.5t20 -57.5q0 -41 -32.5 -69t-76.5 -31q-19 -1 -134.5 -6.5t-178.5 -5.5q-53 0 -131 4q0 -1 1 -71t1 -126q0 -41 -1 -121t-1 -120q2 0 138.5 8t139.5 8 q31 0 50.5 -24.5t19.5 -55.5q0 -41 -32 -68.5t-74 -29.5l-246 -15q-2 -70 -3 -188q-3 -230 -15 -291q-16 -77 -65 -92q-16 -4 -36 -4q-39 0 -60.5 23.5t-21.5 46.5z" />
<glyph unicode="G" horiz-adv-x="970" d="M63 610q0 107 18 213t57.5 205.5t96 175.5t140.5 122t184 46q144 0 235 -81t91 -187q0 -40 -17.5 -61t-44.5 -21q-21 0 -34 15.5t-19 39t-18 51t-28.5 51t-54 39t-91.5 15.5q-81 0 -146 -58.5t-103 -149t-57.5 -189.5t-19.5 -191q0 -82 13 -160.5t40.5 -150.5t77 -116 t115.5 -44q179 0 207 225q-6 0 -18.5 -1t-18.5 -1q-29 0 -49.5 1t-49 3.5t-48 9.5t-38 17t-28 27t-9.5 39q0 43 37.5 68.5t81.5 25.5q13 0 45 -4t62 -4q32 0 68 5t56 10l19 5q29 0 54.5 -23.5t25.5 -60.5q0 -127 -34.5 -228t-94 -163t-135 -94.5t-162.5 -32.5 q-86 0 -156 35.5t-115.5 94.5t-76.5 139t-44.5 165.5t-13.5 177.5z" />
<glyph unicode="H" d="M133 68q19 525 19 886q0 94 -2 169t-4 103l-1 29q0 47 30.5 79t72.5 32q22 0 37.5 -6.5t25.5 -24.5t16 -37t9 -57.5t3.5 -72t0.5 -93.5v-84q0 -38 -1 -113.5t-1 -113.5q152 8 328 20v170q0 94 -2 169t-4 103l-1 29q0 47 30.5 79t72.5 32q60 0 76 -57t16 -215v-103 q0 -306 -18 -882q-3 -52 -36.5 -81.5t-70.5 -29.5q-39 0 -60.5 23.5t-21.5 46.5q11 287 17 575q-195 -10 -283 -10q-16 0 -47 2q-2 -80 -3 -213q-3 -272 -20 -348t-98 -76q-38 0 -59 24t-21 46z" />
<glyph unicode="I" horiz-adv-x="487" d="M133 68q19 525 19 886q0 94 -2 169t-4 103l-1 29q0 47 30.5 79t72.5 32q22 0 37.5 -6.5t25.5 -24.5t16 -37.5t9 -58t3.5 -72.5t0.5 -94v-82q0 -344 -21 -882q-1 -52 -35 -81.5t-71 -29.5q-38 0 -59 24t-21 46z" />
<glyph unicode="J" horiz-adv-x="794" d="M0 348q0 67 31.5 100t79.5 33q27 0 51 -20t24 -60q0 -35 1 -57.5t5 -51.5t12.5 -47t22.5 -35.5t37 -25.5t53 -8q40 0 69 28t47 76.5t28.5 127.5t14 165.5t3.5 206.5q0 96 -3 238.5t-3 198.5q0 74 30.5 110.5t74.5 36.5q57 0 72.5 -83.5t15.5 -291.5v-166q0 -76 -0.5 -124 t-4 -124t-10.5 -126.5t-20 -116.5t-31 -109.5t-46 -89.5t-63.5 -73t-84 -44.5t-107.5 -17.5q-60 0 -110.5 20.5t-84.5 54.5t-58 79.5t-35 94.5t-11 101z" />
<glyph unicode="K" horiz-adv-x="899" d="M133 68q19 525 19 886q0 94 -2 169t-4 103l-1 29q0 47 30.5 79t72.5 32q60 0 76 -57t16 -215v-103q0 -38 -1 -113.5t-1 -113.5q85 110 154.5 218.5t104.5 172t65.5 116t56 74t57.5 21.5q29 0 46.5 -19t17.5 -44q0 -67 -124.5 -285.5t-285.5 -415.5q46 -39 143.5 -136 t197 -212.5t99.5 -151.5q0 -39 -30 -71.5t-78 -32.5q-21 0 -30.5 3.5t-20 13.5t-35 41t-60.5 73t-112 122.5t-174 176.5q-1 -39 -1.5 -89t-1 -80.5t-2 -68t-4 -59.5t-7.5 -47t-13 -38.5t-19.5 -25.5t-28 -17t-38.5 -5q-39 0 -60.5 23.5t-21.5 46.5z" />
<glyph unicode="L" horiz-adv-x="845" d="M135 68q21 525 21 886q0 94 -1.5 169t-2.5 103l-2 29q0 47 30 79t72 32q21 0 36 -6.5t25 -22.5t15.5 -35t8.5 -53.5t4 -67t1 -85.5v-105q0 -369 -16 -823q3 0 37 -1t65 -1q56 0 142.5 3.5t145.5 6.5l58 4q32 0 53 -25.5t21 -58.5q0 -41 -34 -68.5t-77 -29.5 q-218 -12 -311 -12h-31q-34 0 -58.5 0.5t-57.5 3t-56 8t-44.5 14.5t-32.5 23t-11 33z" />
<glyph unicode="M" horiz-adv-x="1153" d="M133 68q19 525 19 886q0 94 -2 169t-4 103l-1 29q0 48 31 79.5t72 31.5q60 0 87 -46t126 -315q63 -170 106 -284q116 352 189.5 498.5t152.5 146.5q60 0 76 -57t16 -215v-103q0 -306 -18 -882q-3 -52 -36 -81.5t-70 -29.5q-39 0 -60.5 23.5t-21.5 46.5q16 453 18 819 q-31 -85 -59.5 -169t-43 -133.5t-30.5 -96.5t-26 -70.5t-24.5 -42.5t-31 -25t-41.5 -6q-46 0 -66.5 33.5t-81.5 202.5q-13 36 -21 58t-22.5 61t-27.5 75q-2 -102 -4 -269q-3 -337 -20.5 -422t-100.5 -85q-38 0 -59 24t-21 46z" />
<glyph unicode="N" horiz-adv-x="1011" d="M133 68q19 525 19 886q0 94 -2 169t-4 103l-1 29q0 44 30 77.5t73 33.5q18 0 29 -3t23 -15.5t20 -30t23 -53.5t30 -78.5t43 -112.5t59.5 -149t82 -194t108.5 -241q6 435 6 465q0 94 -1.5 169t-2.5 103l-2 29q0 47 30 79t72 32q60 0 76 -57t16 -215v-103 q0 -148 -4.5 -358.5t-9 -364.5t-4.5 -166q0 -37 -33 -70.5t-74 -33.5h-4q-17 0 -27 4t-30 25.5t-44.5 68t-64 129.5t-95 211.5t-132.5 313.5q-2 -103 -3 -272q-1 -302 -20 -391t-100 -89q-39 0 -60.5 23.5t-21.5 46.5z" />
<glyph unicode="O" horiz-adv-x="882" d="M72 621q0 348 111 547.5t282 199.5q62 0 112.5 -31.5t84 -86t58 -121t37.5 -144.5t19 -148t6 -139q0 -94 -12 -186.5t-39.5 -184.5t-68.5 -161.5t-104.5 -112.5t-141.5 -43t-139 38t-99 98.5t-62.5 143t-34 163.5t-9.5 168zM260 655q0 -147 29 -262t71.5 -172t88.5 -57 q44 0 78 59t51 145.5t25.5 163.5t8.5 132q0 127 -18.5 231.5t-47.5 166t-60.5 95t-59.5 33.5q-37 0 -76 -81t-64.5 -207t-25.5 -247z" />
<glyph unicode="P" horiz-adv-x="845" d="M133 68q19 525 19 886q0 94 -2 169t-4 103l-1 29q0 65 38 88t110 23q94 0 188 -31t169.5 -85t123 -134.5t47.5 -171.5q0 -80 -39 -152.5t-97 -121.5t-127 -87t-127 -56.5t-99 -22.5q-1 -57 -2 -154q-1 -115 -3.5 -163t-13.5 -102t-34.5 -70.5t-65.5 -16.5q-38 0 -59 24 t-21 46zM336 682q42 13 72 24t76 33.5t75.5 46t51.5 59t22 75.5q0 109 -88 194.5t-209 85.5q4 -58 4 -209q0 -105 -4 -309z" />
<glyph unicode="Q" horiz-adv-x="899" d="M72 621q0 348 110.5 547.5t280.5 199.5q73 0 131 -45.5t92.5 -115.5t57 -163t30.5 -177.5t8 -168.5q0 -143 -29 -284t-87 -240q116 -72 116 -123q0 -40 -33.5 -72t-74.5 -32q-20 0 -38.5 8.5t-58 35t-61.5 40.5q-54 -21 -100 -21q-78 0 -139.5 38t-99 98.5t-62 143 t-34 163.5t-9.5 168zM258 655q0 -243 76 -391q30 15 59 15q42 0 142 -39q38 77 57.5 206t19.5 218q0 127 -18.5 231.5t-47.5 166t-60.5 95t-59.5 33.5q-37 0 -76.5 -80.5t-65.5 -207t-26 -247.5z" />
<glyph unicode="R" horiz-adv-x="905" d="M133 68q19 525 19 886q0 94 -2 169t-4 103l-1 29q0 65 38.5 88t111.5 23q94 0 187.5 -31t169 -85t122.5 -134.5t47 -171.5q0 -60 -21.5 -115.5t-56 -98t-81.5 -79.5t-93.5 -62.5t-95.5 -45.5q67 -80 126 -148t94 -106.5t64.5 -70.5t42.5 -46t22.5 -27.5t11.5 -21t2 -19.5 q0 -37 -30 -71.5t-77 -34.5q-35 0 -70 33t-200 221q-111 132 -127 154q-3 -228 -9 -278q-12 -98 -59 -121q-20 -9 -49 -9q-39 0 -60.5 23.5t-21.5 46.5zM336 682q42 13 73 24t77 33.5t75.5 46t51.5 59t22 75.5q0 109 -88.5 194.5t-208.5 85.5q0 -6 1 -80t1 -129 q0 -105 -4 -309z" />
<glyph unicode="S" horiz-adv-x="860" d="M31 362q0 34 33 63.5t67 29.5q28 0 47.5 -21t30.5 -52.5t27.5 -68t37 -68t62 -52.5t98.5 -21q45 0 75.5 14t47 41.5t24.5 52.5t13 62q0 66 -27 120.5t-69.5 93t-94 74.5t-103 73.5t-94 79.5t-69 104t-26.5 137q0 149 94.5 243.5t253.5 94.5q61 0 115 -23.5t89.5 -58.5 t61.5 -75.5t37.5 -74.5t11.5 -55q0 -36 -19 -59t-42 -23q-19 0 -36.5 25.5t-34 62.5t-38.5 74t-60 62.5t-87 25.5q-81 0 -133 -48.5t-52 -117.5q0 -59 28 -108.5t72.5 -86.5t98.5 -73t108 -75.5t98.5 -85.5t72.5 -112.5t28 -146.5q0 -167 -108 -277t-264 -110 q-65 0 -120.5 18.5t-93 48t-67 67.5t-47 74t-28.5 70t-15 54t-4 28z" />
<glyph unicode="T" horiz-adv-x="849" d="M20 1280q0 86 152 86l746 2q30 0 48.5 -21.5t18.5 -50.5q0 -37 -30 -62.5t-66 -25.5q-29 0 -86 -1t-86 -1q-28 0 -86 1t-88 1q2 -20 1 -71q0 -743 -11 -914q-12 -165 -49 -201q-21 -20 -66 -20q-78 0 -78 119q0 84 2.5 275.5t12 464.5t24.5 347h-242q-55 0 -86 14.5 t-31 57.5z" />
<glyph unicode="U" horiz-adv-x="1064" d="M115 725q0 242 28 522q8 46 37 81.5t70 35.5q37 0 56.5 -31.5t19.5 -70.5q0 -10 -6 -91t-12.5 -196.5t-6.5 -210.5v-49q0 -58 1 -98.5t5 -102.5t11.5 -105t22.5 -92t36 -79t53 -50t72 -20q64 0 113 44t77 109.5t46 153t24 162.5t6 151q0 81 -6 243.5t-6 223.5q0 47 33 77 t69 30q31 0 55 -19t25 -49q0 -17 8 -182t8 -268t-9 -197t-29 -192.5t-57 -178.5t-88 -143.5t-127.5 -99t-170.5 -35.5q-66 0 -119 24t-89.5 64t-64.5 99t-43.5 120.5t-25.5 137.5t-13 141.5t-3 140.5z" />
<glyph unicode="V" horiz-adv-x="878" d="M72 1237q0 54 24.5 89.5t71.5 35.5q31 0 44 -10t37 -83.5t53.5 -212.5t87.5 -420q9 -48 15 -75.5t15.5 -72.5t17.5 -85q63 234 109 395.5t82 268.5t59 166t46.5 88t38.5 35t40 6q34 0 53 -20.5t19 -51.5q0 -4 -34.5 -135t-91.5 -322.5t-121 -380t-132.5 -321.5 t-116.5 -133q-46 0 -105 191.5t-104 427.5t-76.5 423t-31.5 197z" />
<glyph unicode="W" horiz-adv-x="1511" d="M72 1237q0 54 24.5 89.5t71.5 35.5q38 0 56 -25q29 -41 73 -245q18 -81 67 -326l74 -363q73 270 127.5 451t90 282t65.5 152t48 62.5t44 11.5q31 0 44.5 -10.5t35 -75t48 -187.5t76.5 -366q41 -199 66 -320q48 176 85.5 309.5t68.5 234.5t53.5 170t43.5 115.5t35 72 t31 38.5t28 16t30 3q34 0 53 -20.5t19 -51.5q0 -5 -61.5 -204t-142 -443t-166.5 -444.5t-126 -200.5h-14q-29 0 -42 18q-22 32 -63 225q-12 59 -46 224q-58 288 -101 493q-35 -105 -67 -212t-54 -185t-43 -154.5t-36 -130t-31 -102.5t-30.5 -79.5t-32 -53.5t-38 -33 t-45.5 -10q-46 0 -105.5 191.5t-104.5 427.5t-77 423t-32 197z" />
<glyph unicode="X" horiz-adv-x="913" d="M51 74q0 62 60.5 190.5t117.5 223t111 174.5q-229 499 -229 600q0 40 28.5 70t69.5 30q19 0 32 -5.5t25.5 -23t22.5 -40t27 -66t34.5 -91t49.5 -125.5t69 -159q76 112 133.5 212t80 149.5t43.5 87.5t40 49.5t55 11.5q33 0 52.5 -23t19.5 -53q0 -121 -340 -614 q63 -130 118 -236.5t84 -157.5t51 -89t29 -55t7 -32q0 -41 -32 -71.5t-71 -30.5q-31 0 -52.5 19.5t-80 121.5t-178.5 340q-61 -96 -105.5 -187t-61.5 -140t-34 -88t-38 -53.5t-60 -14.5q-31 0 -54.5 22.5t-23.5 53.5z" />
<glyph unicode="Y" horiz-adv-x="866" d="M31 1270q0 42 27.5 68t66.5 26q26 0 42.5 -9t41.5 -40.5t52 -72t90.5 -126t140.5 -178.5q62 75 122.5 155.5t91 122.5t62.5 80t56.5 52t52.5 14q35 0 53 -19.5t18 -50.5q0 -43 -151 -241t-228 -285q-8 -169 -11 -408q-4 -235 -20.5 -297.5t-93.5 -62.5q-38 0 -60 24 t-22 46q0 86 7 347t16 339q-354 437 -354 516z" />
<glyph unicode="Z" horiz-adv-x="1097" d="M-20 74q0 27 17 53.5t75.5 92t139.5 156.5t240.5 288.5t346.5 445.5q7 10 21.5 29.5t21.5 29.5q-105 -6 -207 -6q-149 0 -243.5 7t-140.5 22.5t-61.5 32.5t-15.5 43q0 39 32 66.5t95 27.5q207 -19 363 -19q100 0 193.5 6.5t136.5 12.5l44 6q39 0 61.5 -22.5t22.5 -55.5 q0 -44 -298 -429t-537 -658q150 10 252 10q290 0 394.5 -21t104.5 -92q0 -39 -32 -70.5t-68 -31.5q-219 33 -442 33q-100 0 -210 -7.5t-170 -15.5l-59 -8q-33 0 -55 21.5t-22 52.5z" />
<glyph unicode="[" horiz-adv-x="618" />
<glyph unicode="\" horiz-adv-x="618" />
<glyph unicode="]" horiz-adv-x="618" />
<glyph unicode="^" horiz-adv-x="604" />
<glyph unicode="_" horiz-adv-x="1234" />
<glyph unicode="`" horiz-adv-x="333" />
<glyph unicode="a" d="M61 268q0 126 46.5 255.5t125 233.5t191.5 170t235 66q107 0 125 -41q37 29 74 29q33 0 52.5 -24t19.5 -54q0 -2 -7.5 -35.5t-18.5 -88t-22 -119t-18.5 -142.5t-7.5 -145q0 -68 7 -137.5t15 -104.5l7 -35q0 -37 -36 -67.5t-73 -30.5q-65 0 -82 70q-26 127 -26 264 q0 9 1 26t1 25q-32 -56 -58 -98t-69.5 -100t-82.5 -95.5t-89.5 -64.5t-98.5 -27q-91 0 -151 69.5t-60 200.5zM248 307q0 -46 11 -86.5t34 -40.5q25 0 63 41t81 111t84 142.5t82 155.5t63 129t39 83h-7q-117 0 -223 -82.5t-166.5 -206t-60.5 -246.5z" />
<glyph unicode="b" horiz-adv-x="1079" d="M137 543q0 68 0.5 113.5t2.5 127t6.5 140t11.5 132.5t20 125t29 97.5t40.5 70t53.5 23.5q30 0 52 -23t22 -59q-51 -357 -51 -692v-4q39 73 88 140t110.5 127t135.5 96t149 36q107 0 166 -67t59 -178q0 -86 -34.5 -187.5t-101 -200t-152 -180t-197.5 -132t-228 -50.5 q-90 0 -121 21q-41 28 -52 132q-9 81 -9 392zM340 180q89 0 183 52.5t163.5 131t114.5 173t45 176.5q0 48 -15.5 74t-56.5 26q-77 0 -149.5 -60.5t-122 -147t-88 -179.5t-56.5 -159.5t-18 -86.5z" />
<glyph unicode="c" horiz-adv-x="837" d="M70 430q0 152 55.5 282t156 207.5t222.5 77.5q64 0 116 -21.5t81 -52.5t44 -61.5t15 -54.5q0 -39 -27.5 -68.5t-60.5 -29.5q-21 0 -35.5 11.5t-25.5 27.5t-24.5 32t-38.5 27.5t-61 11.5q-58 0 -104 -34.5t-72 -89t-39.5 -113t-13.5 -113.5q0 -57 10 -106t31.5 -91.5 t60 -67t89.5 -24.5q52 0 82 24t42 58t23.5 68t37 58t71.5 24q34 0 54.5 -24t20.5 -58q0 -52 -26.5 -109.5t-72.5 -107.5t-118 -82.5t-153 -32.5q-107 0 -186 61.5t-116.5 158t-37.5 212.5z" />
<glyph unicode="d" horiz-adv-x="980" d="M72 422q0 98 25 197t70 182t116 135.5t155 52.5q122 0 215 -96q19 286 48 382.5t104 96.5q30 0 52 -23t22 -59q-6 -37 -14 -103.5t-22 -259t-14 -370.5q0 -54 1 -107t2.5 -94t3.5 -77.5t4.5 -63t4 -46t2.5 -29.5l1 -11q0 -60 -34 -89.5t-73 -29.5q-23 0 -39 8.5t-24 19 t-14 34t-7.5 37t-3.5 45.5q-131 -156 -278 -156q-77 0 -137 36t-95 96.5t-53 134.5t-18 157zM262 457q0 -43 7 -88.5t22 -89t42.5 -71.5t63.5 -28q34 0 72.5 30.5t72 78.5t57 90.5t42.5 83.5v49q0 48 -24.5 123t-69.5 138t-92 63q-54 0 -99.5 -62t-69.5 -148.5t-24 -168.5z " />
<glyph unicode="e" horiz-adv-x="972" d="M51 397q0 81 25 166t74 162t115 138t155.5 97.5t187.5 36.5q119 0 183.5 -62t64.5 -140q0 -56 -28 -106t-73.5 -87t-104 -68t-118.5 -51.5t-118.5 -35t-102.5 -21t-71 -6.5q3 -116 64 -178t179 -62q59 0 113.5 23.5t92.5 56.5t70 66t60 56.5t49 23.5q29 0 44.5 -18 t15.5 -42q0 -46 -36.5 -105t-98 -114t-154.5 -93t-193 -38q-109 0 -197 44.5t-143 137t-55 219.5zM281 600q57 10 118 25.5t125 38t105 51.5t41 59q0 22 -30.5 31.5t-59.5 9.5q-99 0 -176.5 -59t-122.5 -156z" />
<glyph unicode="f" horiz-adv-x="745" d="M131 737q0 32 21 57t53 25q1 0 12.5 -0.5l34.5 -1.5t45 -2q8 74 18 128.5t28 114.5t43 102t64.5 82t90.5 64.5t122.5 39t159.5 14.5h17q34 0 56 -24.5t22 -57.5q0 -42 -34 -71t-75 -29h-2q-89 0 -153.5 -27.5t-101 -79t-54.5 -114.5t-21 -144v-4q36 2 86 4.5t80.5 4 t32.5 1.5q32 0 53 -25t21 -57q0 -42 -33.5 -70t-77.5 -30q-133 -8 -168 -8v-82q0 -116 4.5 -223t8.5 -156l5 -49q0 -59 -34 -89t-72 -30q-22 0 -35.5 4.5t-26 23t-19 49.5t-11.5 89t-6.5 137.5t-1.5 198.5q0 88 2 133q-27 0 -43 2q-43 2 -77 30t-34 70z" />
<glyph unicode="g" horiz-adv-x="1001" d="M72 -166q0 44 33 76.5t75 32.5q23 0 41.5 -13t35 -31.5t37 -36.5t57 -31t85.5 -13q41 0 76.5 24t60.5 61t45.5 92t33.5 107t23.5 116t15.5 109.5t9 96.5q-29 -64 -53 -111t-65 -111.5t-79.5 -105.5t-90.5 -70.5t-105 -29.5q-110 0 -171.5 91t-61.5 228q0 132 46 256 t125.5 218t196 151t248.5 57q46 0 69 -24.5t23 -54.5q0 -16 -6 -31h21q52 0 77 -26.5t25 -88.5q0 -109 -3.5 -203t-16 -214t-33 -216t-57.5 -192.5t-86.5 -162t-123.5 -106t-165 -40.5q-76 0 -143.5 22t-109 54t-65.5 64.5t-24 55.5zM262 352q0 -77 20.5 -124.5t49.5 -47.5 q39 0 104 115t148 303t100 221q-122 -18 -186 -45q-236 -100 -236 -422z" />
<glyph unicode="h" horiz-adv-x="995" d="M135 512q0 226 8.5 386.5t22 251.5t36.5 142t44.5 65.5t52.5 14.5q30 0 52 -23t22 -59q-39 -277 -47 -563q55 115 134.5 192.5t178.5 77.5q54 0 96.5 -25.5t70 -72t47 -101t29 -121.5t13.5 -125t4 -120q0 -174 -27 -346q-6 -38 -38 -63t-70 -25q-34 0 -56 23.5t-22 56.5 q25 155 25 323q0 48 -2 93.5t-10 109.5t-22 110t-40 79.5t-62 33.5q-57 0 -104 -84.5t-73.5 -204.5t-41 -229.5t-14.5 -179.5q0 -59 -34 -89t-72 -30q-33 0 -50 12.5t-30 64.5t-17 149.5t-4 275.5z" />
<glyph unicode="i" horiz-adv-x="450" d="M113 68q0 191 3 332.5t7 242t13.5 166t18.5 104t25.5 57t30 23t37.5 4.5q37 0 56.5 -29.5t19.5 -72.5q-19 -439 -23 -786q0 -51 -33.5 -81t-70.5 -30q-33 0 -58.5 19.5t-25.5 50.5zM158 1202q0 75 26 125.5t86 50.5q33 0 55.5 -24.5t22.5 -57.5q0 -180 -112 -180 q-34 0 -56 21.5t-22 64.5z" />
<glyph unicode="j" horiz-adv-x="546" d="M-238 -139q0 45 33.5 76.5t77.5 31.5q25 0 45 -15.5t36 -37.5t34 -44.5t46.5 -38t65.5 -15.5q27 0 48 29t33.5 79.5t21 104t12 117t5 103.5t1.5 77q0 79 -5 217t-5 192q0 129 25 194.5t92 65.5q21 0 36.5 -8t23.5 -19.5t13 -31t6 -36t1 -40.5q0 -58 1 -170t1 -166 q0 -94 -1.5 -165t-5.5 -152t-11.5 -140.5t-20 -122t-30 -106.5t-43 -84.5t-57.5 -65t-74 -38.5t-93 -14q-56 0 -108 19t-87.5 47.5t-63 60.5t-40.5 57.5t-13 38.5zM240 1202q0 17 4 49q7 55 28 86q12 19 34 30t46 11q34 0 57 -24.5t23 -57.5q0 -8 -2 -24t-2 -23 q-4 -50 -14 -69q-15 -30 -41 -47t-54 -17q-35 0 -57 21.5t-22 64.5z" />
<glyph unicode="k" horiz-adv-x="882" d="M135 512q0 226 8.5 386.5t22 251.5t36.5 142t44.5 65.5t52.5 14.5q32 0 54 -23t22 -59q-47 -319 -51 -672q88 80 165 155t111.5 111.5t66 65.5t50.5 38t43 9q30 0 50.5 -19t20.5 -52q0 -25 -20 -57.5t-103 -119.5t-239 -231q100 -103 228 -233q108 -111 129.5 -135.5 t21.5 -38.5v-11q0 -40 -31 -71t-76 -31q-25 0 -53.5 19.5t-108.5 99.5t-253 266q3 -63 7.5 -126.5t7.5 -95.5l3 -32q0 -60 -34 -89.5t-74 -29.5q-33 0 -50 12.5t-30 64.5t-17 149.5t-4 275.5z" />
<glyph unicode="l" horiz-adv-x="473" d="M135 512q0 224 8.5 383t22 251t35.5 143.5t44 67t54 15.5t54 -23t22 -59q-35 -244 -45 -461q-6 -138 -6 -272q0 -116 5 -223t10 -156l5 -49q0 -60 -34 -89.5t-74 -29.5q-33 0 -50 12.5t-30 64.5t-17 149.5t-4 275.5z" />
<glyph unicode="m" horiz-adv-x="1347" d="M113 434q0 146 6.5 248.5t17 164.5t29 96.5t38 46t48.5 11.5q74 0 74 -96q0 -14 -3.5 -44t-5.5 -54q35 56 66.5 93t82.5 67t109 30q83 0 130 -57.5t63 -153.5q28 46 51.5 77.5t57.5 65t75 51t88 17.5q205 0 205 -370q0 -74 -7.5 -168.5t-22 -222t-15.5 -138.5 q-4 -37 -38.5 -62.5t-71.5 -25.5q-28 0 -52 20.5t-24 59.5q0 2 11 94t21.5 213.5t10.5 194.5q0 29 -2 60.5t-7.5 74t-18.5 69.5t-32 27q-41 0 -77 -40.5t-62.5 -110.5t-48 -146.5t-36.5 -165.5t-23.5 -148.5t-14.5 -113.5q-4 -37 -38 -62.5t-72 -25.5q-28 0 -52 20.5 t-24 59.5q0 1 10.5 93.5t21.5 212.5t11 188q0 239 -55 239q-115 0 -236 -360q1 -89 6 -180t8 -137l4 -46q0 -42 -35 -73t-73 -31q-30 0 -53.5 21t-26.5 51q-18 184 -18 366z" />
<glyph unicode="n" horiz-adv-x="1007" d="M113 434q0 182 8.5 296.5t27.5 173t42 78t59 19.5q74 0 74 -96q0 -14 -3.5 -44t-5.5 -54q60 73 145.5 132.5t160.5 59.5q67 0 118 -37.5t80.5 -95t48.5 -136.5t25 -150.5t6 -149.5q0 -267 -33 -367q-10 -28 -39.5 -45.5t-60.5 -17.5q-29 0 -51.5 21.5t-22.5 58.5 q19 180 19 307q0 57 -4 117t-15.5 137.5t-39 126.5t-66.5 49q-33 0 -72.5 -26t-80.5 -75.5t-77 -136t-55 -194.5q2 -68 6 -139t7 -108l3 -38q0 -42 -34 -73t-72 -31q-31 0 -55 21t-27 51q-16 164 -16 366z" />
<glyph unicode="o" horiz-adv-x="858" d="M61 467q0 98 25 191t71.5 170.5t123.5 125t172 47.5q80 0 143.5 -40.5t101 -108t57 -150t19.5 -172.5q0 -98 -24 -191t-69 -170t-119 -124t-165 -47q-67 0 -123 27t-94.5 72.5t-66 106t-40 127t-12.5 136.5zM250 504q0 -131 50.5 -228.5t119.5 -97.5q45 0 79 34.5 t52 87.5t26.5 104t8.5 96q0 148 -50 234.5t-116 86.5q-45 0 -80.5 -36t-53.5 -89t-27 -103t-9 -89z" />
<glyph unicode="p" horiz-adv-x="931" d="M113 141q0 226 8.5 386t22 251.5t36 142.5t44 65.5t52.5 14.5q28 0 48 -17t26 -42q110 55 230 55q121 0 201.5 -88t80.5 -258q0 -108 -33.5 -222t-91.5 -210.5t-147 -158.5t-191 -62q-51 0 -94 14q2 -62 6 -125.5t7 -96.5l4 -32q0 -60 -34.5 -89t-74.5 -29 q-22 0 -35.5 4.5t-26 22.5t-19 49.5t-11.5 89t-6.5 137t-1.5 198.5zM303 369q0 -38 5 -68t18 -59.5t40.5 -45.5t67.5 -16q65 0 123 80.5t88.5 180t30.5 173.5q0 209 -148 209q-34 0 -91 -21.5t-107 -64.5q-18 -172 -23 -276q-4 -54 -4 -92z" />
<glyph unicode="q" horiz-adv-x="919" d="M72 395q0 168 55.5 307.5t156 221.5t224.5 82q95 0 156 -50q30 45 84 45q32 0 53.5 -22.5t21.5 -58.5q-6 -37 -14.5 -103.5t-22.5 -259.5t-14 -371q0 -116 5 -223t11 -156l5 -49q0 -60 -34.5 -89t-74.5 -29q-33 0 -50 13t-29.5 65t-16.5 148.5t-4 272.5q0 33 2 49 q-54 -82 -124.5 -136t-150.5 -54q-63 0 -111 35.5t-75 94.5t-40 126.5t-13 140.5zM258 430q0 -96 23.5 -173t56.5 -77q36 0 77 58t74 139.5t60.5 165.5t43 140.5t15.5 59.5l-5 13q-5 12 -8.5 19.5t-12.5 20.5t-18.5 20.5t-24.5 13.5t-33 6q-77 0 -135 -62t-85.5 -152.5 t-27.5 -191.5z" />
<glyph unicode="r" horiz-adv-x="686" d="M113 434q0 233 16 358.5t44.5 167t78.5 41.5q74 0 74 -96q0 -15 -3.5 -44t-5.5 -50q76 82 178 136t150 54q30 0 50 -18t20 -47q0 -36 -20.5 -55t-58 -33t-81 -32.5t-99 -68t-102.5 -124.5q-13 -22 -21.5 -39t-17 -36.5t-14.5 -31.5v-41q0 -93 4.5 -186.5t8.5 -140.5 l5 -48q0 -42 -35 -73t-73 -31q-30 0 -53.5 21t-26.5 51q-18 184 -18 366z" />
<glyph unicode="s" horiz-adv-x="729" d="M41 242q0 56 37 82t76 26q31 0 48 -12.5t20 -31.5t8.5 -41t13.5 -41t35 -31.5t73 -12.5q109 0 109 96q0 28 -20 53t-51.5 45.5t-70.5 42t-77.5 49t-70 61t-51.5 83t-20 109.5q0 47 15 94.5t44.5 90.5t83 70t122.5 27q131 0 201.5 -61t69.5 -152q0 -30 -27.5 -66 t-61.5 -36q-30 0 -45.5 16.5t-21 40t-13 47t-32 40t-68.5 16.5q-80 0 -80 -88q0 -46 27 -85.5t67 -66t87 -57t87 -59t67 -73t27 -98.5q0 -135 -90 -229t-233 -94q-131 0 -208 70.5t-77 175.5z" />
<glyph unicode="t" horiz-adv-x="780" d="M31 913q0 37 31 66t96 29q120 -2 161 -2q6 70 10 110t11.5 88.5t17 74t24 50t34.5 34t47 9.5q30 0 52 -23t22 -59q-23 -184 -31 -284l194 8q41 0 69 -19t28 -57q0 -36 -25 -64.5t-61 -37.5q-35 -7 -217 -9q-7 -161 -7 -270q0 -116 4.5 -223t9.5 -156l5 -49q0 -61 -34 -90 t-73 -29q-22 0 -35.5 4.5t-26 23t-19 49.5t-11.5 88.5t-6.5 137t-1.5 197.5q0 178 8 317q-164 4 -199 10q-65 11 -75 55q-2 9 -2 21z" />
<glyph unicode="u" horiz-adv-x="890" d="M90 498q0 200 53 417q9 38 39 63.5t70 25.5q30 0 53 -23t23 -55l-5 -26q-5 -26 -12 -68t-14.5 -91.5t-12.5 -108t-5 -106.5q0 -60 6 -114t21.5 -111t49.5 -91t82 -34q51 0 87 43t52 112.5t22.5 132.5t6.5 128q0 74 -7 152.5t-14 120.5l-7 42q0 37 35.5 69t72.5 32 q67 0 82 -72q27 -150 27 -303q0 -98 -10.5 -184t-37.5 -170.5t-69.5 -145t-111 -98t-156.5 -37.5q-73 0 -129 28t-91.5 75t-58.5 112.5t-32 135t-9 149.5z" />
<glyph unicode="v" horiz-adv-x="829" d="M61 893q0 55 34.5 85t68.5 30t51.5 -23t31.5 -81.5t28 -131.5t51 -202.5t90 -264.5q59 131 100.5 258.5t57.5 201t32.5 133.5t38.5 84t64 24q34 0 55.5 -22t21.5 -62q0 -42 -24.5 -148.5t-67 -237.5t-92 -252.5t-106.5 -203.5t-103 -82q-48 0 -109 121.5t-109 278 t-81 300.5t-33 195z" />
<glyph unicode="w" horiz-adv-x="1378" d="M61 893q0 55 34.5 85t68.5 30t52.5 -24t32.5 -84t28.5 -135t52.5 -205.5t92 -266.5q61 111 122 262.5t96.5 224t72.5 72.5q32 0 48.5 -15t30 -58.5t27 -99t51 -161.5t91.5 -221q60 133 102 262t58 203.5t32.5 135t39 84.5t64.5 24q33 0 55.5 -22.5t22.5 -61.5 q0 -42 -24.5 -148.5t-67 -237.5t-92 -252.5t-106.5 -203.5t-103 -82q-33 0 -76.5 60t-82.5 148t-60.5 142t-32.5 86q-192 -436 -297 -436q-48 0 -109 121.5t-109 278t-81 300.5t-33 195z" />
<glyph unicode="x" horiz-adv-x="831" d="M39 76q0 64 86.5 199.5t167.5 234.5q-195 323 -195 397q0 42 30.5 72.5t68.5 30.5q20 0 34.5 -7t25 -20t25.5 -42t30.5 -61.5t46.5 -90t67 -117.5q61 74 112.5 143t71.5 98.5t41.5 53t36 29t41.5 5.5q34 0 52 -21t18 -52q0 -30 -33 -88t-85.5 -126.5t-88 -112 t-70.5 -83.5q52 -76 143 -225t91 -180q0 -38 -32.5 -71.5t-76.5 -33.5q-17 0 -26 1.5t-20.5 11t-19 21.5t-25.5 41.5t-36 61.5t-53.5 90.5t-75.5 120.5q-56 -73 -96.5 -141.5t-56 -104t-32 -64t-35.5 -38.5t-54 -10q-36 0 -57 22t-21 56z" />
<glyph unicode="y" horiz-adv-x="1040" d="M63 -174q0 39 32 71.5t75 32.5q25 0 42.5 -11.5t30 -27.5t28.5 -32t47 -27.5t75 -11.5q41 0 74.5 10.5t69.5 39t67 87.5t55 147q-121 -106 -262 -106q-67 0 -119 24.5t-85.5 66t-55 100t-30.5 121t-9 134.5q0 564 168 564q32 0 53 -23t21 -55q0 -1 -13 -75.5t-26.5 -182 t-13.5 -187.5q0 -305 135 -305q70 0 122 45.5t81 118.5t50.5 161t37.5 176t33 161t45.5 118.5t68.5 45.5q28 0 52 -20t24 -60q0 -97 -2.5 -183t-10.5 -190.5t-20.5 -194t-35 -185t-52 -171.5t-73 -146t-96.5 -116.5t-123.5 -74t-153.5 -27.5q-131 0 -218.5 63.5t-87.5 124.5 z" />
<glyph unicode="z" horiz-adv-x="974" d="M0 98q0 15 30.5 56t173.5 198t412 439q-89 -7 -141 -7q-377 0 -377 113q0 40 29 69t80 29q153 -26 303 -26q102 0 180.5 9.5t120 19.5t55.5 10q35 0 58.5 -21.5t23.5 -56.5q0 -27 -18.5 -50.5t-123.5 -134.5q-68 -72 -117 -124t-156.5 -168.5t-223.5 -243.5q79 6 156 6 q246 0 348 -22t102 -93q0 -45 -32.5 -73.5t-75.5 -28.5q-185 35 -375 35q-68 0 -155.5 -6.5t-140.5 -12.5l-54 -6q-36 0 -58 20t-22 58q0 2 -1 6t-1 6z" />
<glyph unicode="{" horiz-adv-x="831" />
<glyph unicode="|" horiz-adv-x="212" />
<glyph unicode="}" horiz-adv-x="831" />
<glyph unicode="~" />
<glyph unicode="&#xa1;" horiz-adv-x="671" />
<glyph unicode="&#xa2;" horiz-adv-x="710" />
<glyph unicode="&#xa3;" horiz-adv-x="964" />
<glyph unicode="&#xa4;" horiz-adv-x="1032" />
<glyph unicode="&#xa5;" horiz-adv-x="892" />
<glyph unicode="&#xa6;" horiz-adv-x="198" />
<glyph unicode="&#xa7;" horiz-adv-x="757" />
<glyph unicode="&#xa8;" horiz-adv-x="475" />
<glyph unicode="&#xa9;" horiz-adv-x="1454" />
<glyph unicode="&#xaa;" horiz-adv-x="573" />
<glyph unicode="&#xab;" horiz-adv-x="811" />
<glyph unicode="&#xac;" horiz-adv-x="1394" />
<glyph unicode="&#xad;" horiz-adv-x="595" />
<glyph unicode="&#xae;" horiz-adv-x="1329" />
<glyph unicode="&#xaf;" horiz-adv-x="595" />
<glyph unicode="&#xb0;" horiz-adv-x="489" />
<glyph unicode="&#xb1;" horiz-adv-x="677" />
<glyph unicode="&#xb2;" horiz-adv-x="516" />
<glyph unicode="&#xb3;" horiz-adv-x="485" />
<glyph unicode="&#xb4;" horiz-adv-x="335" />
<glyph unicode="&#xb5;" horiz-adv-x="813" />
<glyph unicode="&#xb6;" horiz-adv-x="899" />
<glyph unicode="&#xb7;" horiz-adv-x="159" />
<glyph unicode="&#xb8;" horiz-adv-x="509" />
<glyph unicode="&#xb9;" horiz-adv-x="309" />
<glyph unicode="&#xba;" horiz-adv-x="471" />
<glyph unicode="&#xbb;" horiz-adv-x="811" />
<glyph unicode="&#xbc;" horiz-adv-x="1394" />
<glyph unicode="&#xbd;" horiz-adv-x="1370" />
<glyph unicode="&#xbe;" horiz-adv-x="1540" />
<glyph unicode="&#xbf;" horiz-adv-x="747" />
<glyph unicode="&#xc0;" horiz-adv-x="942" />
<glyph unicode="&#xc1;" horiz-adv-x="942" />
<glyph unicode="&#xc2;" horiz-adv-x="942" />
<glyph unicode="&#xc3;" horiz-adv-x="942" />
<glyph unicode="&#xc4;" horiz-adv-x="942" />
<glyph unicode="&#xc5;" horiz-adv-x="942" />
<glyph unicode="&#xc6;" horiz-adv-x="1480" />
<glyph unicode="&#xc7;" horiz-adv-x="923" />
<glyph unicode="&#xc8;" horiz-adv-x="913" />
<glyph unicode="&#xc9;" horiz-adv-x="913" />
<glyph unicode="&#xca;" horiz-adv-x="913" />
<glyph unicode="&#xcb;" horiz-adv-x="913" />
<glyph unicode="&#xcc;" horiz-adv-x="487" />
<glyph unicode="&#xcd;" horiz-adv-x="487" />
<glyph unicode="&#xce;" horiz-adv-x="487" />
<glyph unicode="&#xcf;" horiz-adv-x="487" />
<glyph unicode="&#xd0;" horiz-adv-x="1024" />
<glyph unicode="&#xd1;" horiz-adv-x="1011" />
<glyph unicode="&#xd2;" horiz-adv-x="882" />
<glyph unicode="&#xd3;" horiz-adv-x="882" />
<glyph unicode="&#xd4;" horiz-adv-x="882" />
<glyph unicode="&#xd5;" horiz-adv-x="882" />
<glyph unicode="&#xd6;" horiz-adv-x="882" />
<glyph unicode="&#xd7;" horiz-adv-x="573" />
<glyph unicode="&#xd8;" horiz-adv-x="888" />
<glyph unicode="&#xd9;" horiz-adv-x="1064" />
<glyph unicode="&#xda;" horiz-adv-x="1064" />
<glyph unicode="&#xdb;" horiz-adv-x="1064" />
<glyph unicode="&#xdc;" horiz-adv-x="1064" />
<glyph unicode="&#xdd;" horiz-adv-x="866" />
<glyph unicode="&#xde;" horiz-adv-x="849" />
<glyph unicode="&#xdf;" horiz-adv-x="1062" />
<glyph unicode="&#xe0;" />
<glyph unicode="&#xe1;" />
<glyph unicode="&#xe2;" />
<glyph unicode="&#xe3;" />
<glyph unicode="&#xe4;" />
<glyph unicode="&#xe5;" />
<glyph unicode="&#xe6;" horiz-adv-x="1570" />
<glyph unicode="&#xe7;" horiz-adv-x="825" />
<glyph unicode="&#xe8;" horiz-adv-x="972" />
<glyph unicode="&#xe9;" horiz-adv-x="972" />
<glyph unicode="&#xea;" horiz-adv-x="972" />
<glyph unicode="&#xeb;" horiz-adv-x="972" />
<glyph unicode="&#xec;" horiz-adv-x="423" />
<glyph unicode="&#xed;" horiz-adv-x="423" />
<glyph unicode="&#xee;" horiz-adv-x="423" />
<glyph unicode="&#xef;" horiz-adv-x="423" />
<glyph unicode="&#xf0;" horiz-adv-x="956" />
<glyph unicode="&#xf1;" horiz-adv-x="1007" />
<glyph unicode="&#xf2;" horiz-adv-x="858" />
<glyph unicode="&#xf3;" horiz-adv-x="858" />
<glyph unicode="&#xf4;" horiz-adv-x="858" />
<glyph unicode="&#xf5;" horiz-adv-x="858" />
<glyph unicode="&#xf6;" horiz-adv-x="858" />
<glyph unicode="&#xf7;" horiz-adv-x="704" />
<glyph unicode="&#xf8;" horiz-adv-x="843" />
<glyph unicode="&#xf9;" horiz-adv-x="890" />
<glyph unicode="&#xfa;" horiz-adv-x="890" />
<glyph unicode="&#xfb;" horiz-adv-x="890" />
<glyph unicode="&#xfc;" horiz-adv-x="890" />
<glyph unicode="&#xfd;" horiz-adv-x="1040" />
<glyph unicode="&#xfe;" horiz-adv-x="944" />
<glyph unicode="&#xff;" horiz-adv-x="1040" />
<glyph unicode="&#x152;" horiz-adv-x="1363" />
<glyph unicode="&#x153;" horiz-adv-x="1490" />
<glyph unicode="&#x178;" horiz-adv-x="866" />
<glyph unicode="&#x2000;" horiz-adv-x="753" />
<glyph unicode="&#x2001;" horiz-adv-x="1507" />
<glyph unicode="&#x2002;" horiz-adv-x="753" />
<glyph unicode="&#x2003;" horiz-adv-x="1507" />
<glyph unicode="&#x2004;" horiz-adv-x="502" />
<glyph unicode="&#x2005;" horiz-adv-x="376" />
<glyph unicode="&#x2006;" horiz-adv-x="251" />
<glyph unicode="&#x2007;" horiz-adv-x="251" />
<glyph unicode="&#x2008;" horiz-adv-x="188" />
<glyph unicode="&#x2009;" horiz-adv-x="301" />
<glyph unicode="&#x200a;" horiz-adv-x="83" />
<glyph unicode="&#x2010;" horiz-adv-x="595" />
<glyph unicode="&#x2011;" horiz-adv-x="595" />
<glyph unicode="&#x2012;" horiz-adv-x="595" />
<glyph unicode="&#x2013;" horiz-adv-x="829" />
<glyph unicode="&#x2014;" horiz-adv-x="1157" />
<glyph unicode="&#x2018;" horiz-adv-x="200" />
<glyph unicode="&#x2019;" horiz-adv-x="200" />
<glyph unicode="&#x201a;" horiz-adv-x="200" />
<glyph unicode="&#x201c;" horiz-adv-x="458" />
<glyph unicode="&#x201d;" horiz-adv-x="458" />
<glyph unicode="&#x201e;" horiz-adv-x="458" />
<glyph unicode="&#x2022;" horiz-adv-x="382" />
<glyph unicode="&#x2026;" horiz-adv-x="2048" />
<glyph unicode="&#x202f;" horiz-adv-x="301" />
<glyph unicode="&#x2039;" horiz-adv-x="464" />
<glyph unicode="&#x203a;" horiz-adv-x="464" />
<glyph unicode="&#x205f;" horiz-adv-x="376" />
<glyph unicode="&#x20ac;" horiz-adv-x="1157" />
<glyph unicode="&#x25fc;" horiz-adv-x="1013" d="M0 0v1014h1014v-1014h-1014z" />
</font>
</defs>
</svg>
